<svg width="240" height="240" viewBox="0 0 240 240" fill="none" xmlns="http://www.w3.org/2000/svg">
<rect width="240" height="240" rx="20" fill="#D9D9D9"/>
<path d="M134.583 111.667C138.035 111.667 140.833 108.868 140.833 105.417C140.833 101.965 138.035 99.1667 134.583 99.1667C131.132 99.1667 128.333 101.965 128.333 105.417C128.333 108.868 131.132 111.667 134.583 111.667Z" fill="#21262C"/>
<path d="M82.5 90.8333C82.5 86.231 86.231 82.5 90.8333 82.5H149.167C153.769 82.5 157.5 86.231 157.5 90.8333V149.167C157.5 153.769 153.769 157.5 149.167 157.5H90.8333C86.231 157.5 82.5 153.769 82.5 149.167V90.8333ZM149.167 90.8333H90.8333V123.831L104.897 112.58C106.419 111.362 108.581 111.362 110.103 112.58L128.024 126.917L133.721 121.22C135.348 119.593 137.986 119.593 139.613 121.22L149.167 130.774V90.8333ZM90.8333 149.167H149.167V142.559L136.667 130.059L131.28 135.446C129.778 136.948 127.388 137.08 125.731 135.754L107.5 121.169L90.8333 134.503V149.167Z" fill="#21262C"/>
</svg>
