<svg width="239" height="134" viewBox="0 0 239 134" fill="none" xmlns="http://www.w3.org/2000/svg">
<path d="M119.5 16.8208C121.802 16.8208 123.667 18.6863 123.667 20.9875V45.9875H148.667C150.968 45.9875 152.834 47.853 152.834 50.1542C152.834 52.4553 150.968 54.3208 148.667 54.3208H123.667V79.3208C123.667 81.622 121.802 83.4875 119.5 83.4875C117.199 83.4875 115.334 81.622 115.334 79.3208V54.3208H90.3337C88.0325 54.3208 86.167 52.4553 86.167 50.1542C86.167 47.853 88.0325 45.9875 90.3337 45.9875H115.334V20.9875C115.334 18.6863 117.199 16.8208 119.5 16.8208Z" fill="#2A2A2A"/>
<path d="M6.82 114.954C8.88667 114.954 10.4867 115.528 11.62 116.674C12.7533 117.808 13.32 119.434 13.32 121.554C13.32 123.661 12.7533 125.288 11.62 126.434C10.4867 127.581 8.88667 128.154 6.82 128.154H1.72V114.954H6.82ZM6.68 125.954C7.93333 125.954 8.87333 125.581 9.5 124.834C10.14 124.074 10.46 122.981 10.46 121.554C10.46 120.128 10.14 119.041 9.5 118.294C8.87333 117.534 7.93333 117.154 6.68 117.154H4.48V125.954H6.68ZM20.375 117.954C21.3883 117.954 22.275 118.161 23.035 118.574C23.8083 118.988 24.4083 119.581 24.835 120.354C25.275 121.128 25.495 122.061 25.495 123.154C25.495 124.234 25.275 125.168 24.835 125.954C24.4083 126.728 23.8083 127.321 23.035 127.734C22.275 128.148 21.3883 128.354 20.375 128.354C19.375 128.354 18.4883 128.148 17.715 127.734C16.9417 127.321 16.335 126.728 15.895 125.954C15.4683 125.168 15.255 124.234 15.255 123.154C15.255 122.061 15.4683 121.128 15.895 120.354C16.335 119.581 16.9417 118.988 17.715 118.574C18.4883 118.161 19.375 117.954 20.375 117.954ZM20.375 119.994C19.8683 119.994 19.435 120.114 19.075 120.354C18.7283 120.581 18.4617 120.928 18.275 121.394C18.0883 121.861 17.995 122.448 17.995 123.154C17.995 123.861 18.0883 124.448 18.275 124.914C18.4617 125.381 18.7283 125.734 19.075 125.974C19.435 126.201 19.8683 126.314 20.375 126.314C20.8683 126.314 21.2883 126.201 21.635 125.974C21.995 125.734 22.2683 125.381 22.455 124.914C22.6417 124.448 22.735 123.861 22.735 123.154C22.735 122.448 22.6417 121.861 22.455 121.394C22.2683 120.928 21.995 120.581 21.635 120.354C21.2883 120.114 20.8683 119.994 20.375 119.994ZM31.5677 128.354C30.741 128.354 30.001 128.148 29.3477 127.734C28.7077 127.321 28.201 126.728 27.8277 125.954C27.4677 125.181 27.2877 124.254 27.2877 123.174C27.2877 122.068 27.481 121.128 27.8677 120.354C28.2543 119.568 28.7743 118.974 29.4277 118.574C30.0943 118.161 30.841 117.954 31.6677 117.954C32.5477 117.954 33.2743 118.208 33.8477 118.714C34.421 119.221 34.7943 119.874 34.9677 120.674L34.7077 120.994V113.774H37.4477V128.154H34.9877L34.8077 125.114L35.1477 125.274C35.0543 125.901 34.841 126.448 34.5077 126.914C34.1743 127.368 33.7543 127.721 33.2477 127.974C32.741 128.228 32.181 128.354 31.5677 128.354ZM32.3677 126.254C32.8477 126.254 33.261 126.134 33.6077 125.894C33.9543 125.641 34.221 125.274 34.4077 124.794C34.6077 124.314 34.7077 123.741 34.7077 123.074C34.7077 122.434 34.6143 121.894 34.4277 121.454C34.241 121.001 33.9743 120.654 33.6277 120.414C33.281 120.174 32.8743 120.054 32.4077 120.054C31.661 120.054 31.0743 120.321 30.6477 120.854C30.2343 121.374 30.0277 122.141 30.0277 123.154C30.0277 124.168 30.2343 124.941 30.6477 125.474C31.061 125.994 31.6343 126.254 32.3677 126.254ZM46.0267 121.774C46.0267 121.201 45.8601 120.754 45.5267 120.434C45.2067 120.114 44.7801 119.954 44.2467 119.954C43.7534 119.954 43.3201 120.081 42.9467 120.334C42.5734 120.588 42.3001 121.008 42.1267 121.594L39.7867 120.874C40.0134 119.994 40.5067 119.288 41.2667 118.754C42.0401 118.221 43.0734 117.954 44.3667 117.954C45.2467 117.954 46.0134 118.094 46.6667 118.374C47.3201 118.641 47.8267 119.048 48.1867 119.594C48.5601 120.141 48.7467 120.828 48.7467 121.654V125.714C48.7467 126.221 48.9867 126.474 49.4667 126.474C49.6934 126.474 49.9067 126.441 50.1067 126.374L49.9467 128.074C49.6001 128.248 49.1667 128.334 48.6467 128.334C48.1801 128.334 47.7601 128.254 47.3867 128.094C47.0134 127.934 46.7201 127.694 46.5067 127.374C46.2934 127.041 46.1867 126.628 46.1867 126.134V126.054L46.6667 125.974C46.5867 126.481 46.3667 126.914 46.0067 127.274C45.6467 127.621 45.2067 127.888 44.6867 128.074C44.1801 128.261 43.6534 128.354 43.1067 128.354C42.4267 128.354 41.8401 128.254 41.3467 128.054C40.8534 127.841 40.4734 127.534 40.2067 127.134C39.9401 126.734 39.8067 126.241 39.8067 125.654C39.8067 124.908 40.0467 124.301 40.5267 123.834C41.0067 123.354 41.6934 123.028 42.5867 122.854L46.3467 122.094L46.3267 123.794L43.9267 124.274C43.4734 124.368 43.1267 124.494 42.8867 124.654C42.6601 124.801 42.5467 125.048 42.5467 125.394C42.5467 125.728 42.6667 125.981 42.9067 126.154C43.1601 126.328 43.4601 126.414 43.8067 126.414C44.0867 126.414 44.3601 126.381 44.6267 126.314C44.8934 126.248 45.1334 126.141 45.3467 125.994C45.5601 125.848 45.7267 125.648 45.8467 125.394C45.9667 125.141 46.0267 124.834 46.0267 124.474V121.774ZM53.1911 116.714C52.6178 116.714 52.1911 116.594 51.9111 116.354C51.6311 116.101 51.4911 115.734 51.4911 115.254C51.4911 114.761 51.6311 114.394 51.9111 114.154C52.1911 113.901 52.6178 113.774 53.1911 113.774C53.7644 113.774 54.1911 113.901 54.4711 114.154C54.7511 114.394 54.8911 114.761 54.8911 115.254C54.8911 115.734 54.7511 116.101 54.4711 116.354C54.1911 116.594 53.7644 116.714 53.1911 116.714ZM54.5511 118.154V128.894C54.5511 129.761 54.3911 130.454 54.0711 130.974C53.7644 131.494 53.3444 131.868 52.8111 132.094C52.2778 132.334 51.6711 132.454 50.9911 132.454C50.4978 132.454 50.0511 132.394 49.6511 132.274C49.2511 132.168 48.9044 132.014 48.6111 131.814L49.0311 129.854C49.1911 129.988 49.3911 130.101 49.6311 130.194C49.8711 130.288 50.1378 130.334 50.4311 130.334C50.8444 130.334 51.1778 130.208 51.4311 129.954C51.6844 129.701 51.8111 129.261 51.8111 128.634V118.154H54.5511ZM63.5689 128.154V118.154H66.0289L66.1889 121.154L65.8489 120.834C66.0089 120.181 66.2622 119.641 66.6089 119.214C66.9556 118.788 67.3756 118.474 67.8689 118.274C68.3756 118.061 68.9289 117.954 69.5289 117.954C70.2222 117.954 70.8356 118.088 71.3689 118.354C71.9156 118.621 72.3422 119.028 72.6489 119.574C72.9689 120.108 73.1289 120.781 73.1289 121.594V128.154H70.3889V122.374C70.3889 121.521 70.2222 120.934 69.8889 120.614C69.5556 120.281 69.1222 120.114 68.5889 120.114C68.2156 120.114 67.8489 120.208 67.4889 120.394C67.1422 120.568 66.8556 120.854 66.6289 121.254C66.4156 121.654 66.3089 122.188 66.3089 122.854V128.154H63.5689ZM80.5117 117.954C81.5251 117.954 82.4117 118.161 83.1717 118.574C83.9451 118.988 84.5451 119.581 84.9717 120.354C85.4117 121.128 85.6317 122.061 85.6317 123.154C85.6317 124.234 85.4117 125.168 84.9717 125.954C84.5451 126.728 83.9451 127.321 83.1717 127.734C82.4117 128.148 81.5251 128.354 80.5117 128.354C79.5117 128.354 78.6251 128.148 77.8517 127.734C77.0784 127.321 76.4717 126.728 76.0317 125.954C75.6051 125.168 75.3917 124.234 75.3917 123.154C75.3917 122.061 75.6051 121.128 76.0317 120.354C76.4717 119.581 77.0784 118.988 77.8517 118.574C78.6251 118.161 79.5117 117.954 80.5117 117.954ZM80.5117 119.994C80.0051 119.994 79.5717 120.114 79.2117 120.354C78.8651 120.581 78.5984 120.928 78.4117 121.394C78.2251 121.861 78.1317 122.448 78.1317 123.154C78.1317 123.861 78.2251 124.448 78.4117 124.914C78.5984 125.381 78.8651 125.734 79.2117 125.974C79.5717 126.201 80.0051 126.314 80.5117 126.314C81.0051 126.314 81.4251 126.201 81.7717 125.974C82.1317 125.734 82.4051 125.381 82.5917 124.914C82.7784 124.448 82.8717 123.861 82.8717 123.154C82.8717 122.448 82.7784 121.861 82.5917 121.394C82.4051 120.928 82.1317 120.581 81.7717 120.354C81.4251 120.114 81.0051 119.994 80.5117 119.994ZM94.3672 118.154H97.2072L93.4072 128.154H90.2472L86.4472 118.154H89.3672L91.8472 126.054L94.3672 118.154ZM100.105 116.714C99.5318 116.714 99.1052 116.594 98.8252 116.354C98.5452 116.101 98.4052 115.734 98.4052 115.254C98.4052 114.761 98.5452 114.394 98.8252 114.154C99.1052 113.901 99.5318 113.774 100.105 113.774C100.678 113.774 101.105 113.901 101.385 114.154C101.665 114.394 101.805 114.761 101.805 115.254C101.805 115.734 101.665 116.101 101.385 116.354C101.105 116.594 100.678 116.714 100.105 116.714ZM101.465 118.154V128.154H98.7252V118.154H101.465ZM115.043 117.954C116.056 117.954 116.943 118.161 117.703 118.574C118.476 118.988 119.076 119.581 119.503 120.354C119.943 121.128 120.163 122.061 120.163 123.154C120.163 124.234 119.943 125.168 119.503 125.954C119.076 126.728 118.476 127.321 117.703 127.734C116.943 128.148 116.056 128.354 115.043 128.354C114.043 128.354 113.156 128.148 112.383 127.734C111.61 127.321 111.003 126.728 110.563 125.954C110.136 125.168 109.923 124.234 109.923 123.154C109.923 122.061 110.136 121.128 110.563 120.354C111.003 119.581 111.61 118.988 112.383 118.574C113.156 118.161 114.043 117.954 115.043 117.954ZM115.043 119.994C114.536 119.994 114.103 120.114 113.743 120.354C113.396 120.581 113.13 120.928 112.943 121.394C112.756 121.861 112.663 122.448 112.663 123.154C112.663 123.861 112.756 124.448 112.943 124.914C113.13 125.381 113.396 125.734 113.743 125.974C114.103 126.201 114.536 126.314 115.043 126.314C115.536 126.314 115.956 126.201 116.303 125.974C116.663 125.734 116.936 125.381 117.123 124.914C117.31 124.448 117.403 123.861 117.403 123.154C117.403 122.448 117.31 121.861 117.123 121.394C116.936 120.928 116.663 120.581 116.303 120.354C115.956 120.114 115.536 119.994 115.043 119.994ZM131.598 115.774L131.918 117.734C131.864 117.734 131.804 117.734 131.738 117.734C131.684 117.721 131.624 117.714 131.558 117.714C130.944 117.714 130.484 117.854 130.178 118.134C129.871 118.401 129.718 118.774 129.718 119.254L128.598 118.794C128.598 118.261 128.704 117.768 128.918 117.314C129.131 116.848 129.444 116.474 129.858 116.194C130.284 115.914 130.791 115.774 131.378 115.774C131.404 115.774 131.438 115.774 131.478 115.774C131.518 115.774 131.558 115.774 131.598 115.774ZM128.318 126.274C129.398 126.274 130.231 126.508 130.818 126.974C131.404 127.441 131.698 128.094 131.698 128.934C131.698 129.694 131.478 130.334 131.037 130.854C130.598 131.388 129.978 131.788 129.178 132.054C128.391 132.321 127.478 132.454 126.438 132.454C124.718 132.454 123.458 132.214 122.658 131.734C121.871 131.254 121.478 130.628 121.478 129.854C121.478 129.308 121.684 128.848 122.098 128.474C122.524 128.101 123.224 127.894 124.198 127.854L124.098 128.174C123.404 128.054 122.871 127.828 122.498 127.494C122.138 127.148 121.958 126.674 121.958 126.074C121.958 125.461 122.191 124.961 122.658 124.574C123.138 124.174 123.784 123.941 124.598 123.874L125.798 124.434H125.518C124.944 124.474 124.538 124.594 124.298 124.794C124.071 124.981 123.958 125.194 123.958 125.434C123.958 125.714 124.064 125.928 124.278 126.074C124.504 126.208 124.824 126.274 125.238 126.274H128.318ZM126.458 130.574C127.151 130.574 127.718 130.514 128.158 130.394C128.611 130.274 128.944 130.121 129.158 129.934C129.384 129.748 129.498 129.541 129.498 129.314C129.498 129.061 129.398 128.854 129.198 128.694C128.998 128.548 128.638 128.474 128.118 128.474H124.738C124.418 128.474 124.151 128.554 123.938 128.714C123.738 128.874 123.638 129.094 123.638 129.374C123.638 129.748 123.884 130.041 124.378 130.254C124.884 130.468 125.578 130.574 126.458 130.574ZM126.478 117.954C127.411 117.954 128.218 118.094 128.898 118.374C129.591 118.641 130.118 119.028 130.478 119.534C130.851 120.041 131.037 120.648 131.037 121.354C131.037 122.048 130.851 122.648 130.478 123.154C130.118 123.661 129.591 124.054 128.898 124.334C128.218 124.601 127.411 124.734 126.478 124.734C124.998 124.734 123.864 124.434 123.078 123.834C122.304 123.221 121.918 122.394 121.918 121.354C121.918 120.648 122.098 120.041 122.458 119.534C122.831 119.028 123.358 118.641 124.038 118.374C124.718 118.094 125.531 117.954 126.478 117.954ZM126.478 119.674C125.944 119.674 125.504 119.821 125.158 120.114C124.811 120.408 124.638 120.814 124.638 121.334C124.638 121.854 124.811 122.268 125.158 122.574C125.504 122.868 125.944 123.014 126.478 123.014C127.011 123.014 127.444 122.868 127.778 122.574C128.124 122.268 128.298 121.854 128.298 121.334C128.298 120.814 128.124 120.408 127.778 120.114C127.444 119.821 127.011 119.674 126.478 119.674ZM136.054 113.774V125.074C136.054 125.541 136.134 125.868 136.294 126.054C136.454 126.241 136.721 126.334 137.094 126.334C137.321 126.334 137.507 126.321 137.654 126.294C137.801 126.254 137.987 126.201 138.214 126.134L137.974 127.934C137.747 128.068 137.461 128.168 137.114 128.234C136.781 128.314 136.447 128.354 136.114 128.354C135.141 128.354 134.427 128.121 133.974 127.654C133.534 127.174 133.314 126.414 133.314 125.374V113.774H136.054ZM144.381 128.354C143.327 128.354 142.407 128.148 141.621 127.734C140.847 127.321 140.247 126.728 139.821 125.954C139.394 125.181 139.181 124.248 139.181 123.154C139.181 122.061 139.394 121.128 139.821 120.354C140.247 119.581 140.841 118.988 141.601 118.574C142.374 118.161 143.254 117.954 144.241 117.954C145.254 117.954 146.114 118.161 146.821 118.574C147.527 118.974 148.067 119.528 148.441 120.234C148.814 120.928 149.001 121.721 149.001 122.614C149.001 122.881 148.994 123.134 148.981 123.374C148.967 123.614 148.947 123.828 148.921 124.014H140.941V122.114H147.721L146.401 122.594C146.401 121.754 146.207 121.108 145.821 120.654C145.447 120.201 144.914 119.974 144.221 119.974C143.714 119.974 143.274 120.094 142.901 120.334C142.541 120.574 142.267 120.934 142.081 121.414C141.894 121.881 141.801 122.474 141.801 123.194C141.801 123.901 141.901 124.488 142.101 124.954C142.314 125.408 142.607 125.748 142.981 125.974C143.367 126.201 143.827 126.314 144.361 126.314C144.947 126.314 145.421 126.201 145.781 125.974C146.141 125.748 146.421 125.434 146.621 125.034L148.801 125.874C148.587 126.394 148.261 126.841 147.821 127.214C147.394 127.588 146.881 127.874 146.281 128.074C145.694 128.261 145.061 128.354 144.381 128.354ZM155.103 128.354C154.276 128.354 153.536 128.148 152.883 127.734C152.243 127.321 151.736 126.728 151.363 125.954C151.003 125.181 150.823 124.254 150.823 123.174C150.823 122.068 151.016 121.128 151.403 120.354C151.789 119.568 152.309 118.974 152.963 118.574C153.629 118.161 154.376 117.954 155.203 117.954C156.083 117.954 156.809 118.208 157.383 118.714C157.956 119.221 158.329 119.874 158.503 120.674L158.243 120.994V113.774H160.983V128.154H158.523L158.343 125.114L158.683 125.274C158.589 125.901 158.376 126.448 158.043 126.914C157.709 127.368 157.289 127.721 156.783 127.974C156.276 128.228 155.716 128.354 155.103 128.354ZM155.903 126.254C156.383 126.254 156.796 126.134 157.143 125.894C157.489 125.641 157.756 125.274 157.943 124.794C158.143 124.314 158.243 123.741 158.243 123.074C158.243 122.434 158.149 121.894 157.963 121.454C157.776 121.001 157.509 120.654 157.163 120.414C156.816 120.174 156.409 120.054 155.943 120.054C155.196 120.054 154.609 120.321 154.183 120.854C153.769 121.374 153.563 122.141 153.563 123.154C153.563 124.168 153.769 124.941 154.183 125.474C154.596 125.994 155.169 126.254 155.903 126.254ZM163.862 128.154V118.154H166.322L166.482 121.154L166.142 120.834C166.302 120.181 166.555 119.641 166.902 119.214C167.249 118.788 167.669 118.474 168.162 118.274C168.669 118.061 169.222 117.954 169.822 117.954C170.515 117.954 171.129 118.088 171.662 118.354C172.209 118.621 172.635 119.028 172.942 119.574C173.262 120.108 173.422 120.781 173.422 121.594V128.154H170.682V122.374C170.682 121.521 170.515 120.934 170.182 120.614C169.849 120.281 169.415 120.114 168.882 120.114C168.509 120.114 168.142 120.208 167.782 120.394C167.435 120.568 167.149 120.854 166.922 121.254C166.709 121.654 166.602 122.188 166.602 122.854V128.154H163.862ZM177.625 116.714C177.051 116.714 176.625 116.594 176.345 116.354C176.065 116.101 175.925 115.734 175.925 115.254C175.925 114.761 176.065 114.394 176.345 114.154C176.625 113.901 177.051 113.774 177.625 113.774C178.198 113.774 178.625 113.901 178.905 114.154C179.185 114.394 179.325 114.761 179.325 115.254C179.325 115.734 179.185 116.101 178.905 116.354C178.625 116.594 178.198 116.714 177.625 116.714ZM178.985 118.154V128.154H176.245V118.154H178.985ZM194.094 118.154H196.934L193.134 128.154H189.974L186.174 118.154H189.094L191.574 126.054L194.094 118.154ZM199.832 116.714C199.258 116.714 198.832 116.594 198.552 116.354C198.272 116.101 198.132 115.734 198.132 115.254C198.132 114.761 198.272 114.394 198.552 114.154C198.832 113.901 199.258 113.774 199.832 113.774C200.405 113.774 200.832 113.901 201.112 114.154C201.392 114.394 201.532 114.761 201.532 115.254C201.532 115.734 201.392 116.101 201.112 116.354C200.832 116.594 200.405 116.714 199.832 116.714ZM201.192 118.154V128.154H198.452V118.154H201.192ZM207.876 128.354C207.05 128.354 206.31 128.148 205.656 127.734C205.016 127.321 204.51 126.728 204.136 125.954C203.776 125.181 203.596 124.254 203.596 123.174C203.596 122.068 203.79 121.128 204.176 120.354C204.563 119.568 205.083 118.974 205.736 118.574C206.403 118.161 207.15 117.954 207.976 117.954C208.856 117.954 209.583 118.208 210.156 118.714C210.73 119.221 211.103 119.874 211.276 120.674L211.016 120.994V113.774H213.756V128.154H211.296L211.116 125.114L211.456 125.274C211.363 125.901 211.15 126.448 210.816 126.914C210.483 127.368 210.063 127.721 209.556 127.974C209.05 128.228 208.49 128.354 207.876 128.354ZM208.676 126.254C209.156 126.254 209.57 126.134 209.916 125.894C210.263 125.641 210.53 125.274 210.716 124.794C210.916 124.314 211.016 123.741 211.016 123.074C211.016 122.434 210.923 121.894 210.736 121.454C210.55 121.001 210.283 120.654 209.936 120.414C209.59 120.174 209.183 120.054 208.716 120.054C207.97 120.054 207.383 120.321 206.956 120.854C206.543 121.374 206.336 122.141 206.336 123.154C206.336 124.168 206.543 124.941 206.956 125.474C207.37 125.994 207.943 126.254 208.676 126.254ZM221.275 128.354C220.222 128.354 219.302 128.148 218.515 127.734C217.742 127.321 217.142 126.728 216.715 125.954C216.289 125.181 216.075 124.248 216.075 123.154C216.075 122.061 216.289 121.128 216.715 120.354C217.142 119.581 217.735 118.988 218.495 118.574C219.269 118.161 220.149 117.954 221.135 117.954C222.149 117.954 223.009 118.161 223.715 118.574C224.422 118.974 224.962 119.528 225.335 120.234C225.709 120.928 225.895 121.721 225.895 122.614C225.895 122.881 225.889 123.134 225.875 123.374C225.862 123.614 225.842 123.828 225.815 124.014H217.835V122.114H224.615L223.295 122.594C223.295 121.754 223.102 121.108 222.715 120.654C222.342 120.201 221.809 119.974 221.115 119.974C220.609 119.974 220.169 120.094 219.795 120.334C219.435 120.574 219.162 120.934 218.975 121.414C218.789 121.881 218.695 122.474 218.695 123.194C218.695 123.901 218.795 124.488 218.995 124.954C219.209 125.408 219.502 125.748 219.875 125.974C220.262 126.201 220.722 126.314 221.255 126.314C221.842 126.314 222.315 126.201 222.675 125.974C223.035 125.748 223.315 125.434 223.515 125.034L225.695 125.874C225.482 126.394 225.155 126.841 224.715 127.214C224.289 127.588 223.775 127.874 223.175 128.074C222.589 128.261 221.955 128.354 221.275 128.354ZM232.777 117.954C233.791 117.954 234.677 118.161 235.437 118.574C236.211 118.988 236.811 119.581 237.237 120.354C237.677 121.128 237.897 122.061 237.897 123.154C237.897 124.234 237.677 125.168 237.237 125.954C236.811 126.728 236.211 127.321 235.437 127.734C234.677 128.148 233.791 128.354 232.777 128.354C231.777 128.354 230.891 128.148 230.117 127.734C229.344 127.321 228.737 126.728 228.297 125.954C227.871 125.168 227.657 124.234 227.657 123.154C227.657 122.061 227.871 121.128 228.297 120.354C228.737 119.581 229.344 118.988 230.117 118.574C230.891 118.161 231.777 117.954 232.777 117.954ZM232.777 119.994C232.271 119.994 231.837 120.114 231.477 120.354C231.131 120.581 230.864 120.928 230.677 121.394C230.491 121.861 230.397 122.448 230.397 123.154C230.397 123.861 230.491 124.448 230.677 124.914C230.864 125.381 231.131 125.734 231.477 125.974C231.837 126.201 232.271 126.314 232.777 126.314C233.271 126.314 233.691 126.201 234.037 125.974C234.397 125.734 234.671 125.381 234.857 124.914C235.044 124.448 235.137 123.861 235.137 123.154C235.137 122.448 235.044 121.861 234.857 121.394C234.671 120.928 234.397 120.581 234.037 120.354C233.691 120.114 233.271 119.994 232.777 119.994Z" fill="black"/>
</svg>
