<svg width="25" height="25" viewBox="0 0 25 25" fill="none" xmlns="http://www.w3.org/2000/svg">
<g clip-path="url(#clip0_1157_8416)">
<path d="M24.6666 12.7765C24.6666 11.9608 24.6005 11.1406 24.4594 10.3381H13.1406V14.9591H19.6224C19.3534 16.4495 18.4892 17.7679 17.2237 18.6056V21.604H21.0907C23.3615 19.514 24.6666 16.4274 24.6666 12.7765Z" fill="#4285F4"/>
<path d="M13.1405 24.5008C16.3769 24.5008 19.1063 23.4382 21.0949 21.6039L17.2279 18.6055C16.1521 19.3375 14.7631 19.752 13.1449 19.752C10.0143 19.752 7.35986 17.6399 6.40744 14.8003H2.41699V17.8912C4.4541 21.9434 8.60329 24.5008 13.1405 24.5008Z" fill="#34A853"/>
<path d="M6.40316 14.8002C5.9005 13.3099 5.9005 11.696 6.40316 10.2057V7.11475H2.41713C0.715124 10.5055 0.715124 14.5004 2.41713 17.8912L6.40316 14.8002Z" fill="#FBBC04"/>
<path d="M13.1405 5.24966C14.8513 5.2232 16.5048 5.86697 17.7438 7.04867L21.1699 3.62262C19.0005 1.5855 16.1212 0.465534 13.1405 0.500809C8.60329 0.500809 4.4541 3.05822 2.41699 7.11481L6.40303 10.2058C7.35104 7.36173 10.0099 5.24966 13.1405 5.24966Z" fill="#EA4335"/>
</g>
<defs>
<clipPath id="clip0_1157_8416">
<rect width="24" height="24" fill="white" transform="translate(0.900391 0.5)"/>
</clipPath>
</defs>
</svg>
