<svg width="20" height="21" viewBox="0 0 20 21" fill="none" xmlns="http://www.w3.org/2000/svg">
<path d="M10 2.22266C5.58172 2.22266 2 5.80438 2 10.2227C2 14.6409 5.58172 18.2227 10 18.2227C14.4183 18.2227 18 14.6409 18 10.2227C18 5.80438 14.4183 2.22266 10 2.22266ZM0 10.2227C0 4.69981 4.47715 0.222656 10 0.222656C15.5228 0.222656 20 4.69981 20 10.2227C20 15.7455 15.5228 20.2227 10 20.2227C4.47715 20.2227 0 15.7455 0 10.2227ZM5.79289 6.01555C6.18342 5.62503 6.81658 5.62503 7.20711 6.01555L10 8.80844L12.7929 6.01555C13.1834 5.62503 13.8166 5.62503 14.2071 6.01555C14.5976 6.40607 14.5976 7.03924 14.2071 7.42976L11.4142 10.2227L14.2071 13.0155C14.5976 13.4061 14.5976 14.0392 14.2071 14.4298C13.8166 14.8203 13.1834 14.8203 12.7929 14.4298L10 11.6369L7.20711 14.4298C6.81658 14.8203 6.18342 14.8203 5.79289 14.4298C5.40237 14.0392 5.40237 13.4061 5.79289 13.0155L8.58579 10.2227L5.79289 7.42976C5.40237 7.03924 5.40237 6.40607 5.79289 6.01555Z" fill="#21262C"/>
</svg>
