<svg width="27" height="30" viewBox="0 0 27 30" fill="none" xmlns="http://www.w3.org/2000/svg">
<path fill-rule="evenodd" clip-rule="evenodd" d="M10.5833 0.280273C9.80979 0.280273 9.06792 0.587564 8.52094 1.13455C7.97396 1.68153 7.66667 2.42339 7.66667 3.19694V6.11361H3.30943C3.29869 6.11349 3.28793 6.11349 3.27714 6.11361H1.83333C1.02792 6.11361 0.375 6.76652 0.375 7.57194C0.375 8.37736 1.02792 9.03027 1.83333 9.03027H1.9498L3.29217 25.1387C3.30949 26.2749 3.76834 27.3608 4.57307 28.1655C5.39354 28.986 6.50634 29.4469 7.66666 29.4469H19.3333C20.4936 29.4469 21.6064 28.986 22.4269 28.1655C23.2316 27.3608 23.6905 26.2749 23.7078 25.1387L25.0502 9.03027H25.1667C25.9721 9.03027 26.625 8.37736 26.625 7.57194C26.625 6.76652 25.9721 6.11361 25.1667 6.11361H23.7228C23.7121 6.11349 23.7013 6.11349 23.6906 6.11361H19.3333V3.19694C19.3333 2.42339 19.026 1.68153 18.4791 1.13455C17.9321 0.587564 17.1902 0.280273 16.4167 0.280273H10.5833ZM16.4167 6.11361V3.19694H10.5833V6.11361H16.4167ZM9.125 9.03027H4.87657L6.20329 24.9508C6.20664 24.9911 6.20832 25.0315 6.20832 25.0719C6.20832 25.4587 6.36197 25.8296 6.63546 26.1031C6.90895 26.3766 7.27988 26.5303 7.66666 26.5303H19.3333C19.7201 26.5303 20.091 26.3766 20.3645 26.1031C20.638 25.8296 20.7917 25.4587 20.7917 25.0719C20.7917 25.0315 20.7933 24.9911 20.7967 24.9508L22.1234 9.03027H17.875H9.125ZM10.5833 11.9469C11.3887 11.9469 12.0417 12.5999 12.0417 13.4053V22.1553C12.0417 22.9607 11.3887 23.6136 10.5833 23.6136C9.77792 23.6136 9.125 22.9607 9.125 22.1553V13.4053C9.125 12.5999 9.77792 11.9469 10.5833 11.9469ZM17.875 13.4053C17.875 12.5999 17.2221 11.9469 16.4167 11.9469C15.6113 11.9469 14.9583 12.5999 14.9583 13.4053V22.1553C14.9583 22.9607 15.6113 23.6136 16.4167 23.6136C17.2221 23.6136 17.875 22.9607 17.875 22.1553V13.4053Z" fill="#212121"/>
</svg>
