<svg width="14" height="20" viewBox="0 0 14 20" fill="none" xmlns="http://www.w3.org/2000/svg">
<path fill-rule="evenodd" clip-rule="evenodd" d="M4 5C4 3.34315 5.34315 2 7 2C8.65685 2 10 3.34315 10 5C10 6.65685 8.65685 8 7 8C5.34315 8 4 6.65685 4 5ZM7 0C4.23858 0 2 2.23858 2 5C2 7.76142 4.23858 10 7 10C9.76142 10 12 7.76142 12 5C12 2.23858 9.76142 0 7 0ZM2.87868 14.8787C3.44129 14.3161 4.20435 14 5 14H9C9.79565 14 10.5587 14.3161 11.1213 14.8787C11.6839 15.4413 12 16.2044 12 17V19C12 19.5523 12.4477 20 13 20C13.5523 20 14 19.5523 14 19V17C14 15.6739 13.4732 14.4021 12.5355 13.4645C11.5979 12.5268 10.3261 12 9 12H5C3.67392 12 2.40215 12.5268 1.46447 13.4645C0.526784 14.4021 0 15.6739 0 17V19C0 19.5523 0.447715 20 1 20C1.55228 20 2 19.5523 2 19V17C2 16.2043 2.31607 15.4413 2.87868 14.8787Z" fill="#212121"/>
</svg>
