<svg width="240" height="240" viewBox="0 0 240 240" fill="none" xmlns="http://www.w3.org/2000/svg">
<rect width="240" height="240" rx="20" fill="#D9D9D9"/>
<path d="M120 74.6666C122.301 74.6666 124.167 76.5321 124.167 78.8333V103.833H149.167C151.468 103.833 153.333 105.699 153.333 108C153.333 110.301 151.468 112.167 149.167 112.167H124.167V137.167C124.167 139.468 122.301 141.333 120 141.333C117.699 141.333 115.833 139.468 115.833 137.167V112.167H90.8334C88.5322 112.167 86.6667 110.301 86.6667 108C86.6667 105.699 88.5322 103.833 90.8334 103.833H115.833V78.8333C115.833 76.5321 117.699 74.6666 120 74.6666Z" fill="#2A2A2A"/>
<path d="M61.9485 165.76C62.6112 165.76 63.1805 165.877 63.6565 166.11C64.1418 166.343 64.5198 166.675 64.7905 167.104C65.0612 167.533 65.1965 168.051 65.1965 168.658C65.1965 169.255 65.0612 169.773 64.7905 170.212C64.5198 170.641 64.1418 170.973 63.6565 171.206C63.1805 171.439 62.6112 171.556 61.9485 171.556H59.8905V175H58.3925V165.76H61.9485ZM61.7105 170.268C62.3732 170.268 62.8585 170.133 63.1665 169.862C63.4838 169.582 63.6425 169.181 63.6425 168.658C63.6425 168.126 63.4838 167.725 63.1665 167.454C62.8585 167.174 62.3732 167.034 61.7105 167.034H59.8905V170.268H61.7105ZM66.9599 175V168H68.2339L68.3739 169.26C68.5605 168.803 68.8359 168.457 69.1999 168.224C69.5732 167.981 70.0305 167.86 70.5719 167.86C70.7119 167.86 70.8519 167.874 70.9919 167.902C71.1319 167.921 71.2485 167.953 71.3419 168L71.1319 169.316C71.0292 169.279 70.9125 169.251 70.7819 169.232C70.6605 169.204 70.4925 169.19 70.2779 169.19C69.9885 169.19 69.7039 169.269 69.4239 169.428C69.1439 169.577 68.9105 169.806 68.7239 170.114C68.5465 170.422 68.4579 170.814 68.4579 171.29V175H66.9599ZM75.659 175.14C74.959 175.14 74.343 174.995 73.811 174.706C73.279 174.417 72.8637 174.001 72.565 173.46C72.2757 172.909 72.131 172.256 72.131 171.5C72.131 170.744 72.2757 170.095 72.565 169.554C72.8637 169.003 73.2743 168.583 73.797 168.294C74.3197 168.005 74.9123 167.86 75.575 167.86C76.2563 167.86 76.835 168 77.311 168.28C77.787 168.56 78.151 168.943 78.403 169.428C78.655 169.913 78.781 170.464 78.781 171.08C78.781 171.248 78.7763 171.407 78.767 171.556C78.7577 171.705 78.7437 171.836 78.725 171.948H73.097V170.8H78.067L77.325 171.024C77.325 170.389 77.1663 169.904 76.849 169.568C76.5317 169.223 76.0977 169.05 75.547 169.05C75.1457 169.05 74.7957 169.143 74.497 169.33C74.1983 169.517 73.9697 169.797 73.811 170.17C73.6523 170.534 73.573 170.982 73.573 171.514C73.573 172.037 73.657 172.48 73.825 172.844C73.993 173.208 74.231 173.483 74.539 173.67C74.847 173.857 75.211 173.95 75.631 173.95C76.0977 173.95 76.4757 173.861 76.765 173.684C77.0543 173.507 77.283 173.259 77.451 172.942L78.641 173.502C78.473 173.838 78.2443 174.132 77.955 174.384C77.675 174.627 77.339 174.813 76.947 174.944C76.555 175.075 76.1257 175.14 75.659 175.14ZM80.6727 175V168H82.0027L82.1007 169.82L81.9047 169.624C82.0354 169.223 82.2221 168.891 82.4647 168.63C82.7167 168.359 83.0107 168.163 83.3467 168.042C83.6921 167.921 84.0561 167.86 84.4387 167.86C84.9334 167.86 85.3767 167.958 85.7687 168.154C86.1701 168.341 86.4874 168.625 86.7207 169.008C86.9541 169.391 87.0707 169.876 87.0707 170.464V175H85.5727V170.926C85.5727 170.235 85.4281 169.759 85.1387 169.498C84.8587 169.227 84.5041 169.092 84.0747 169.092C83.7667 169.092 83.4681 169.167 83.1787 169.316C82.8894 169.456 82.6467 169.685 82.4507 170.002C82.2641 170.319 82.1707 170.744 82.1707 171.276V175H80.6727ZM92.4207 175.14C91.7207 175.14 91.1047 174.995 90.5727 174.706C90.0407 174.417 89.6254 174.001 89.3267 173.46C89.0374 172.909 88.8927 172.256 88.8927 171.5C88.8927 170.744 89.0374 170.095 89.3267 169.554C89.6254 169.003 90.036 168.583 90.5587 168.294C91.0814 168.005 91.674 167.86 92.3367 167.86C93.018 167.86 93.5967 168 94.0727 168.28C94.5487 168.56 94.9127 168.943 95.1647 169.428C95.4167 169.913 95.5427 170.464 95.5427 171.08C95.5427 171.248 95.538 171.407 95.5287 171.556C95.5194 171.705 95.5054 171.836 95.4867 171.948H89.8587V170.8H94.8287L94.0867 171.024C94.0867 170.389 93.928 169.904 93.6107 169.568C93.2934 169.223 92.8594 169.05 92.3087 169.05C91.9074 169.05 91.5574 169.143 91.2587 169.33C90.96 169.517 90.7314 169.797 90.5727 170.17C90.414 170.534 90.3347 170.982 90.3347 171.514C90.3347 172.037 90.4187 172.48 90.5867 172.844C90.7547 173.208 90.9927 173.483 91.3007 173.67C91.6087 173.857 91.9727 173.95 92.3927 173.95C92.8594 173.95 93.2374 173.861 93.5267 173.684C93.816 173.507 94.0447 173.259 94.2127 172.942L95.4027 173.502C95.2347 173.838 95.006 174.132 94.7167 174.384C94.4367 174.627 94.1007 174.813 93.7087 174.944C93.3167 175.075 92.8874 175.14 92.4207 175.14ZM100.094 175.14C99.3945 175.14 98.7551 175.005 98.1765 174.734C97.5978 174.463 97.1405 174.081 96.8045 173.586L97.8405 172.69C98.0458 173.073 98.3398 173.381 98.7225 173.614C99.1145 173.838 99.5811 173.95 100.122 173.95C100.552 173.95 100.892 173.875 101.144 173.726C101.396 173.577 101.522 173.367 101.522 173.096C101.522 172.919 101.462 172.765 101.34 172.634C101.228 172.494 101.009 172.387 100.682 172.312L99.2125 172.004C98.4658 171.855 97.9338 171.617 97.6165 171.29C97.2991 170.954 97.1405 170.529 97.1405 170.016C97.1405 169.633 97.2525 169.279 97.4765 168.952C97.7005 168.625 98.0271 168.364 98.4565 168.168C98.8951 167.963 99.4178 167.86 100.024 167.86C100.724 167.86 101.322 167.986 101.816 168.238C102.311 168.481 102.689 168.831 102.95 169.288L101.914 170.156C101.737 169.783 101.476 169.507 101.13 169.33C100.785 169.143 100.426 169.05 100.052 169.05C99.7538 169.05 99.4971 169.087 99.2825 169.162C99.0678 169.237 98.9045 169.339 98.7925 169.47C98.6805 169.601 98.6245 169.755 98.6245 169.932C98.6245 170.119 98.6945 170.282 98.8345 170.422C98.9745 170.562 99.2265 170.669 99.5905 170.744L101.186 171.08C101.858 171.211 102.33 171.435 102.6 171.752C102.88 172.06 103.02 172.438 103.02 172.886C103.02 173.334 102.904 173.731 102.67 174.076C102.437 174.412 102.101 174.673 101.662 174.86C101.224 175.047 100.701 175.14 100.094 175.14ZM105.601 166.824C105.274 166.824 105.022 166.745 104.845 166.586C104.677 166.418 104.593 166.185 104.593 165.886C104.593 165.587 104.677 165.359 104.845 165.2C105.022 165.041 105.274 164.962 105.601 164.962C105.918 164.962 106.161 165.041 106.329 165.2C106.506 165.359 106.595 165.587 106.595 165.886C106.595 166.185 106.506 166.418 106.329 166.586C106.161 166.745 105.918 166.824 105.601 166.824ZM106.343 168V175H104.845V168H106.343ZM116.002 164.752C116.291 164.752 116.553 164.785 116.786 164.85C117.029 164.906 117.211 164.985 117.332 165.088L117.052 166.166C116.949 166.101 116.833 166.054 116.702 166.026C116.571 165.989 116.422 165.97 116.254 165.97C115.871 165.97 115.568 166.059 115.344 166.236C115.129 166.413 115.022 166.703 115.022 167.104V168.126L115.064 168.504V175H113.566V166.992C113.566 166.637 113.617 166.32 113.72 166.04C113.832 165.76 113.995 165.527 114.21 165.34C114.425 165.144 114.681 164.999 114.98 164.906C115.288 164.803 115.629 164.752 116.002 164.752ZM117.29 168V169.176H112.25V168H117.29ZM121.527 167.86C122.208 167.86 122.81 168.005 123.333 168.294C123.856 168.583 124.262 169.003 124.551 169.554C124.85 170.095 124.999 170.744 124.999 171.5C124.999 172.256 124.85 172.909 124.551 173.46C124.262 174.001 123.856 174.417 123.333 174.706C122.81 174.995 122.208 175.14 121.527 175.14C120.846 175.14 120.244 174.995 119.721 174.706C119.198 174.417 118.788 174.001 118.489 173.46C118.19 172.909 118.041 172.256 118.041 171.5C118.041 170.744 118.19 170.095 118.489 169.554C118.788 169.003 119.198 168.583 119.721 168.294C120.244 168.005 120.846 167.86 121.527 167.86ZM121.527 169.036C121.107 169.036 120.748 169.134 120.449 169.33C120.16 169.517 119.936 169.792 119.777 170.156C119.618 170.52 119.539 170.968 119.539 171.5C119.539 172.023 119.618 172.471 119.777 172.844C119.936 173.208 120.16 173.488 120.449 173.684C120.748 173.871 121.107 173.964 121.527 173.964C121.947 173.964 122.302 173.871 122.591 173.684C122.88 173.488 123.104 173.208 123.263 172.844C123.422 172.471 123.501 172.023 123.501 171.5C123.501 170.968 123.422 170.52 123.263 170.156C123.104 169.792 122.88 169.517 122.591 169.33C122.302 169.134 121.947 169.036 121.527 169.036ZM128.832 165.942V172.9C128.832 173.245 128.921 173.497 129.098 173.656C129.285 173.815 129.532 173.894 129.84 173.894C130.092 173.894 130.311 173.857 130.498 173.782C130.685 173.698 130.857 173.586 131.016 173.446L131.352 174.538C131.137 174.725 130.871 174.874 130.554 174.986C130.246 175.089 129.901 175.14 129.518 175.14C129.117 175.14 128.748 175.075 128.412 174.944C128.076 174.813 127.815 174.603 127.628 174.314C127.441 174.015 127.343 173.628 127.334 173.152V166.362L128.832 165.942ZM131.24 168V169.176H125.99V168H131.24ZM135.76 167.86C136.441 167.86 137.043 168.005 137.566 168.294C138.088 168.583 138.494 169.003 138.784 169.554C139.082 170.095 139.232 170.744 139.232 171.5C139.232 172.256 139.082 172.909 138.784 173.46C138.494 174.001 138.088 174.417 137.566 174.706C137.043 174.995 136.441 175.14 135.76 175.14C135.078 175.14 134.476 174.995 133.954 174.706C133.431 174.417 133.02 174.001 132.722 173.46C132.423 172.909 132.274 172.256 132.274 171.5C132.274 170.744 132.423 170.095 132.722 169.554C133.02 169.003 133.431 168.583 133.954 168.294C134.476 168.005 135.078 167.86 135.76 167.86ZM135.76 169.036C135.34 169.036 134.98 169.134 134.682 169.33C134.392 169.517 134.168 169.792 134.01 170.156C133.851 170.52 133.772 170.968 133.772 171.5C133.772 172.023 133.851 172.471 134.01 172.844C134.168 173.208 134.392 173.488 134.682 173.684C134.98 173.871 135.34 173.964 135.76 173.964C136.18 173.964 136.534 173.871 136.824 173.684C137.113 173.488 137.337 173.208 137.496 172.844C137.654 172.471 137.734 172.023 137.734 171.5C137.734 170.968 137.654 170.52 137.496 170.156C137.337 169.792 137.113 169.517 136.824 169.33C136.534 169.134 136.18 169.036 135.76 169.036ZM147.249 166.53L147.487 167.706C147.459 167.706 147.431 167.706 147.403 167.706C147.375 167.697 147.347 167.692 147.319 167.692C146.871 167.692 146.53 167.79 146.297 167.986C146.063 168.173 145.947 168.448 145.947 168.812L145.219 168.476C145.219 168.103 145.298 167.771 145.457 167.482C145.615 167.183 145.839 166.95 146.129 166.782C146.427 166.614 146.763 166.53 147.137 166.53C147.155 166.53 147.174 166.53 147.193 166.53C147.211 166.53 147.23 166.53 147.249 166.53ZM145.037 173.908C145.746 173.908 146.297 174.067 146.689 174.384C147.081 174.692 147.277 175.121 147.277 175.672C147.277 176.157 147.123 176.573 146.815 176.918C146.507 177.273 146.087 177.543 145.555 177.73C145.032 177.917 144.43 178.01 143.749 178.01C142.601 178.01 141.751 177.833 141.201 177.478C140.65 177.123 140.375 176.68 140.375 176.148C140.375 175.775 140.505 175.448 140.767 175.168C141.037 174.888 141.49 174.729 142.125 174.692L142.041 174.916C141.649 174.832 141.331 174.683 141.089 174.468C140.855 174.244 140.739 173.931 140.739 173.53C140.739 173.129 140.893 172.788 141.201 172.508C141.509 172.228 141.943 172.065 142.503 172.018L143.287 172.396H143.119C142.689 172.433 142.386 172.531 142.209 172.69C142.031 172.849 141.943 173.026 141.943 173.222C141.943 173.455 142.027 173.628 142.195 173.74C142.372 173.852 142.619 173.908 142.937 173.908H145.037ZM143.749 176.89C144.262 176.89 144.682 176.839 145.009 176.736C145.345 176.643 145.592 176.517 145.751 176.358C145.919 176.209 146.003 176.041 146.003 175.854C146.003 175.639 145.914 175.467 145.737 175.336C145.569 175.205 145.261 175.14 144.813 175.14H142.559C142.297 175.14 142.078 175.205 141.901 175.336C141.723 175.476 141.635 175.663 141.635 175.896C141.635 176.204 141.821 176.447 142.195 176.624C142.568 176.801 143.086 176.89 143.749 176.89ZM143.693 167.86C144.309 167.86 144.841 167.958 145.289 168.154C145.746 168.35 146.096 168.625 146.339 168.98C146.591 169.335 146.717 169.75 146.717 170.226C146.717 170.702 146.591 171.117 146.339 171.472C146.096 171.827 145.746 172.102 145.289 172.298C144.841 172.494 144.309 172.592 143.693 172.592C142.722 172.592 141.975 172.377 141.453 171.948C140.939 171.509 140.683 170.935 140.683 170.226C140.683 169.75 140.809 169.335 141.061 168.98C141.313 168.625 141.663 168.35 142.111 168.154C142.568 167.958 143.095 167.86 143.693 167.86ZM143.693 168.91C143.263 168.91 142.904 169.031 142.615 169.274C142.335 169.507 142.195 169.825 142.195 170.226C142.195 170.627 142.335 170.949 142.615 171.192C142.904 171.435 143.263 171.556 143.693 171.556C144.131 171.556 144.491 171.435 144.771 171.192C145.06 170.949 145.205 170.627 145.205 170.226C145.205 169.825 145.06 169.507 144.771 169.274C144.491 169.031 144.131 168.91 143.693 168.91ZM148.649 175V168H149.923L150.063 169.26C150.25 168.803 150.525 168.457 150.889 168.224C151.263 167.981 151.72 167.86 152.261 167.86C152.401 167.86 152.541 167.874 152.681 167.902C152.821 167.921 152.938 167.953 153.031 168L152.821 169.316C152.719 169.279 152.602 169.251 152.471 169.232C152.35 169.204 152.182 169.19 151.967 169.19C151.678 169.19 151.393 169.269 151.113 169.428C150.833 169.577 150.6 169.806 150.413 170.114C150.236 170.422 150.147 170.814 150.147 171.29V175H148.649ZM158.342 170.506C158.342 170.039 158.211 169.68 157.95 169.428C157.698 169.167 157.348 169.036 156.9 169.036C156.48 169.036 156.12 169.134 155.822 169.33C155.523 169.526 155.304 169.843 155.164 170.282L153.904 169.75C154.081 169.181 154.426 168.723 154.94 168.378C155.462 168.033 156.134 167.86 156.956 167.86C157.516 167.86 158.01 167.953 158.44 168.14C158.869 168.317 159.205 168.588 159.448 168.952C159.7 169.316 159.826 169.783 159.826 170.352V173.474C159.826 173.819 159.998 173.992 160.344 173.992C160.512 173.992 160.675 173.969 160.834 173.922L160.75 174.958C160.535 175.061 160.264 175.112 159.938 175.112C159.639 175.112 159.368 175.061 159.126 174.958C158.892 174.846 158.706 174.683 158.566 174.468C158.435 174.244 158.37 173.969 158.37 173.642V173.544L158.678 173.53C158.594 173.894 158.421 174.197 158.16 174.44C157.898 174.673 157.595 174.851 157.25 174.972C156.904 175.084 156.554 175.14 156.2 175.14C155.761 175.14 155.364 175.07 155.01 174.93C154.664 174.79 154.389 174.58 154.184 174.3C153.988 174.011 153.89 173.656 153.89 173.236C153.89 172.713 154.058 172.284 154.394 171.948C154.739 171.612 155.224 171.383 155.85 171.262L158.566 170.73L158.552 171.78L156.578 172.186C156.186 172.261 155.892 172.368 155.696 172.508C155.5 172.648 155.402 172.853 155.402 173.124C155.402 173.385 155.5 173.595 155.696 173.754C155.901 173.903 156.172 173.978 156.508 173.978C156.741 173.978 156.965 173.95 157.18 173.894C157.404 173.838 157.604 173.749 157.782 173.628C157.959 173.497 158.094 173.334 158.188 173.138C158.29 172.933 158.342 172.69 158.342 172.41V170.506ZM165.193 164.752C165.483 164.752 165.744 164.785 165.977 164.85C166.22 164.906 166.402 164.985 166.523 165.088L166.243 166.166C166.141 166.101 166.024 166.054 165.893 166.026C165.763 165.989 165.613 165.97 165.445 165.97C165.063 165.97 164.759 166.059 164.535 166.236C164.321 166.413 164.213 166.703 164.213 167.104V168.126L164.255 168.504V175H162.757V166.992C162.757 166.637 162.809 166.32 162.911 166.04C163.023 165.76 163.187 165.527 163.401 165.34C163.616 165.144 163.873 164.999 164.171 164.906C164.479 164.803 164.82 164.752 165.193 164.752ZM166.481 168V169.176H161.441V168H166.481ZM168.581 166.824C168.255 166.824 168.003 166.745 167.825 166.586C167.657 166.418 167.573 166.185 167.573 165.886C167.573 165.587 167.657 165.359 167.825 165.2C168.003 165.041 168.255 164.962 168.581 164.962C168.899 164.962 169.141 165.041 169.309 165.2C169.487 165.359 169.575 165.587 169.575 165.886C169.575 166.185 169.487 166.418 169.309 166.586C169.141 166.745 168.899 166.824 168.581 166.824ZM169.323 168V175H167.825V168H169.323ZM172.401 166.824C172.075 166.824 171.823 166.745 171.645 166.586C171.477 166.418 171.393 166.185 171.393 165.886C171.393 165.587 171.477 165.359 171.645 165.2C171.823 165.041 172.075 164.962 172.401 164.962C172.719 164.962 172.961 165.041 173.129 165.2C173.307 165.359 173.395 165.587 173.395 165.886C173.395 166.185 173.307 166.418 173.129 166.586C172.961 166.745 172.719 166.824 172.401 166.824ZM173.143 168V175.616C173.143 176.213 173.031 176.685 172.807 177.03C172.593 177.385 172.308 177.637 171.953 177.786C171.608 177.935 171.239 178.01 170.847 178.01C170.53 178.01 170.241 177.968 169.979 177.884C169.718 177.8 169.499 177.688 169.321 177.548L169.573 176.344C169.704 176.456 169.863 176.549 170.049 176.624C170.227 176.699 170.427 176.736 170.651 176.736C170.95 176.736 171.188 176.638 171.365 176.442C171.552 176.255 171.645 175.933 171.645 175.476V168H173.143ZM177.979 175.14C177.522 175.14 177.097 175.056 176.705 174.888C176.323 174.72 176.015 174.449 175.781 174.076C175.548 173.703 175.431 173.217 175.431 172.62V168H176.929V172.242C176.929 172.877 177.065 173.315 177.335 173.558C177.606 173.791 177.984 173.908 178.469 173.908C178.703 173.908 178.927 173.871 179.141 173.796C179.365 173.712 179.566 173.586 179.743 173.418C179.921 173.241 180.056 173.017 180.149 172.746C180.252 172.475 180.303 172.158 180.303 171.794V168H181.801V175H180.485L180.415 173.866C180.173 174.305 179.846 174.627 179.435 174.832C179.025 175.037 178.539 175.14 177.979 175.14Z" fill="black"/>
</svg>
